<svg width="568" height="180" viewBox="0 0 568 180" fill="none" xmlns="http://www.w3.org/2000/svg">
<g clip-path="url(#clip0_1_1463)">
<path d="M81.1798 82.1589V102.027H52.5592V178.36H28.605V102.027H0V82.1589H81.1798Z" fill="black"/>
<path d="M91.3992 178.36V82.1589H115.478V178.36H91.3992Z" fill="black"/>
<path d="M169.935 82.1589C199.302 82.1589 219.352 97.0912 219.352 130.252C219.352 163.412 199.302 178.344 169.935 178.344H133.008V82.1433H169.935V82.1589ZM170.433 158.476C185.816 158.476 194.636 148.605 194.636 130.252C194.636 111.899 185.816 102.027 170.433 102.027H157.071V158.476H170.433Z" fill="black"/>
<path d="M310.736 82.1589L275.318 140.764V178.36H251.239V140.764L215.821 82.1589H243.042L263.341 117.975L283.515 82.1589H310.736Z" fill="black"/>
<path d="M388.773 151.651C388.773 170.254 372.643 180 348.564 180C324.486 180 311.249 167.973 309.367 149.495H333.57C334.067 156.961 338.983 161.897 348.564 161.897C356.124 161.897 364.321 158.226 364.321 150.12C364.321 141.014 355.113 137.968 344.271 137.968H337.583V118.849H344.271C356.248 118.849 361.537 114.164 361.537 108.338C361.537 102.137 356.248 98.5909 348.549 98.5909C340.352 98.5909 335.825 103.027 335.312 109.603H311.109C312.493 92.265 328.001 80.4878 348.549 80.4878C369.097 80.4878 385.989 90.4843 385.989 105.557C385.989 120.63 374.525 126.191 362.035 128.471C374.261 129.861 388.758 136.062 388.758 151.635L388.773 151.651Z" fill="#00643C"/>
<path d="M434.037 82.1589C463.405 82.1589 483.455 97.0912 483.455 130.252C483.455 163.412 463.405 178.344 434.037 178.344H397.111V82.1433H434.037V82.1589ZM434.535 158.476C449.919 158.476 458.738 148.605 458.738 130.252C458.738 111.899 449.919 102.027 434.535 102.027H421.174V158.476H434.535Z" fill="#00643C"/>
<path d="M508.684 36.175C451.723 -6.79446 372.721 12.6988 339.589 70.7724C340.212 70.6943 340.849 70.6318 341.471 70.5849C374.93 15.2916 451.816 -2.85833 506.6 38.9553C551.148 72.4437 562.068 130.658 541.473 176.829H543.807C565.101 129.986 554.135 70.788 508.684 36.175Z" fill="black"/>
<path d="M540.68 114.804C533.712 58.7139 480.235 18.1967 424.611 26.85C393.797 31.7233 370.185 48.3581 355.377 70.3661H357.991C389.582 27.6622 452.61 15.3383 498.232 50.0763C539.14 80.9093 547.866 135.437 526.308 176.829H529.356C538.923 159.148 543.48 138.014 540.665 114.804H540.68Z" fill="#00643C"/>
<path d="M527.925 116.6C521.968 67.461 475.086 31.9421 426.4 39.6581C403.13 43.4068 384.605 54.8716 371.71 70.3662H375.832C381.416 64.5245 387.949 59.3076 395.462 55.0278C461.227 18.0094 539.125 77.0046 521.719 150.682C519.37 160.335 515.544 169.066 510.598 176.829H514.175C525.048 160.288 530.647 139.623 527.925 116.6Z" fill="black"/>
<path d="M515.186 118.381C511.702 87.7975 488.105 61.0568 458.303 53.8562C433.897 47.3272 408.419 54.5903 390.158 70.3505H396.877C398.666 69.1321 400.502 67.9607 402.43 66.8673C457.665 36.2685 522.621 85.4702 508.482 147.214C505.822 158.632 500.674 168.582 493.845 176.813H497.827C510.629 161.787 517.877 141.498 515.202 118.365L515.186 118.381Z" fill="#00643C"/>
<path d="M502.431 120.177C498.62 85.0799 464.634 59.3075 429.978 65.2586C424.02 66.2739 418.529 68.0389 413.49 70.3662H437.911C460.123 70.3662 479.379 83.0024 488.977 101.512C495.821 113.476 498.636 128.112 495.214 143.778C492.134 157.633 484.528 168.91 474.511 176.829H479.068C494.934 164.255 505.029 144.075 502.416 120.177H502.431Z" fill="black"/>
<path d="M516.399 25.9285C451.147 -23.4762 359.515 1.20271 324.812 70.6005H325.917C360.837 3.0302 451.21 -20.8053 514.953 27.8497C563.39 64.2589 576.3 126.722 555.97 177.626C556.484 177.72 556.997 177.813 557.495 177.923C578.462 126.503 565.552 63.2124 516.399 25.9285Z" fill="#00643C"/>
</g>
<defs>
<clipPath id="clip0_1_1463">
<rect width="567.17" height="180" fill="white"/>
</clipPath>
</defs>
</svg>
